<svg width="351" height="264" viewBox="0 0 351 264" fill="none" xmlns="http://www.w3.org/2000/svg">
<path d="M166.44 9.96234C170.42 4.2619 178.859 4.26191 182.839 9.96236L343.794 240.494C348.422 247.123 343.68 256.219 335.595 256.219H13.6845C5.59978 256.219 0.856969 247.123 5.48518 240.494L166.44 9.96234Z" fill="#1A1A1A" fill-opacity="0.63"/>
<path d="M172.089 0.0351562C174.484 -0.193589 176.572 0.712308 178.183 2.47656L178.339 2.63281L178.476 2.80859C178.879 3.25056 179.455 3.53377 180.722 3.25781L180.976 3.19922L181.21 3.16016C181.818 3.02783 182.531 2.92618 183.222 3.00391C183.918 3.0833 184.938 3.39305 185.624 4.37109C186.284 5.3167 186.253 6.34223 186.132 6.98828C186.103 7.14238 186 7.28702 185.956 7.4375H186.132L186.405 7.41797C187.632 7.4061 189.094 7.61371 190.233 8.55078C191.553 9.63641 191.847 11.1823 191.679 12.5156L191.64 12.7109L191.62 12.9258C191.416 14.5404 191.136 16.2087 190.761 17.9258L190.702 18.1406L190.663 18.2773L190.722 18.2969L190.937 18.3359C191.609 18.4506 192.365 18.6931 193.026 19.2148C193.728 19.7696 194.186 20.5216 194.374 21.3633C194.603 22.3889 194.353 23.4029 194.022 24.332L194.257 24.2734L194.687 24.1562C196.428 23.6668 198.101 23.3532 199.472 23.5117C200.179 23.5943 201.058 23.8194 201.796 24.4492C202.604 25.1395 202.967 26.0779 203.026 26.9883L203.046 27.1641V27.3398C203.152 29.0196 202.921 30.8318 202.421 32.7305L202.362 32.9648L202.304 33.1797C202.173 33.6761 202.174 33.9574 202.187 34.0781L202.265 34.1367L202.401 34.2148C203.567 34.9762 204.245 36.1459 204.413 37.4766C204.524 38.3666 204.362 39.2654 204.12 40.1328L204.452 40.0742L204.843 39.9961C206.394 39.6638 207.835 39.5038 209.081 39.6055C209.989 39.6805 211.052 39.9227 211.933 40.582L212.753 41.3828L212.831 41.5L212.929 41.6172C213.835 42.8175 214.462 44.1905 214.843 45.6797L214.882 45.8164L214.921 45.9727C215.015 46.339 215.212 46.6436 215.819 46.9102L215.976 46.9688L216.151 47.0469C216.797 47.3317 217.421 47.7781 217.89 48.4336C218.361 49.0922 218.575 49.8314 218.632 50.543C218.725 51.7282 218.319 52.907 217.831 54C219.144 53.8437 220.431 53.8355 221.562 54.1367C222.501 54.3872 223.439 54.8858 224.101 55.7383L224.667 56.7148L224.706 56.8516L224.765 57.0078C225.479 58.7562 225.425 60.7131 224.96 62.6719H225.038L225.272 62.6914C226.544 62.7368 228.506 63.1845 229.276 65.1719C229.898 66.7876 229.271 68.4678 228.71 69.6055L228.573 69.8789L228.437 70.1719C227.979 71.1014 227.824 71.7 227.792 72.0273C227.79 72.049 227.773 72.0693 227.772 72.0859L227.831 72.1445C228.411 72.8028 229.139 73.3953 230.019 73.9219L230.155 74L230.292 74.0977C231.245 74.6682 232.309 75.1801 233.476 75.6406L233.651 75.7188L233.808 75.7773C235.384 76.3993 236.773 77.2901 237.851 78.4922L237.948 78.5898L238.046 78.707C238.973 79.7415 239.741 80.892 240.351 82.1445L240.429 82.2812L240.487 82.418C241.51 84.5246 240.888 86.9915 239.94 89.1367L239.823 89.4102L239.784 89.4492C241.589 89.5769 243.296 89.7793 244.901 90.0742L245.116 90.1133L245.312 90.1523C246.67 90.402 248.178 91.2018 248.71 92.9844C249.143 94.4461 248.696 95.9481 248.183 97.1055L247.948 97.6523C247.099 99.5657 246.549 101.214 246.269 102.613L246.19 103.043C245.952 104.237 246.244 104.502 246.269 104.527L246.366 104.645L246.464 104.742C246.991 105.295 247.719 105.812 248.71 106.227L248.886 106.285L249.042 106.363C249.67 106.625 250.996 106.781 253.358 106.461L254.022 106.383C254.779 106.281 255.596 106.25 256.366 106.402C257.15 106.559 258.138 106.952 258.788 107.926C259.43 108.89 259.434 109.949 259.296 110.719C259.157 111.485 258.823 112.247 258.456 112.926L258.144 113.512C258.021 113.738 257.945 113.946 257.87 114.117C259.029 114.55 260.077 115.41 260.468 116.871C260.755 117.953 260.531 119.039 260.214 120.016L260.331 119.996L260.702 119.918C262.211 119.602 263.817 119.427 265.155 119.84C265.892 120.068 266.686 120.517 267.245 121.324C267.8 122.128 267.933 123.02 267.89 123.785V123.98L267.87 124.176C267.794 125.505 267.835 126.733 267.968 127.867L268.007 128.219C268.145 129.396 268.24 130.583 268.358 131.773C268.663 131.781 269.073 131.774 269.608 131.695L269.94 131.656L270.272 131.598C271.662 131.394 273.137 131.362 274.394 131.832C275.071 132.087 275.755 132.512 276.269 133.199C276.528 133.546 276.71 133.917 276.835 134.293L277.05 135.426L277.069 135.602V135.777C277.075 135.869 277.081 135.926 277.089 135.953C277.088 135.953 277.176 136.055 277.499 136.148L277.694 136.188L277.87 136.246C278.554 136.443 279.299 136.803 279.882 137.457C280.481 138.13 280.768 138.939 280.839 139.723C280.965 141.136 280.392 142.569 279.745 143.785L279.433 144.371C278.903 145.368 278.646 146.085 278.554 146.559C278.461 147.037 278.578 147.038 278.476 146.852L278.554 146.988L278.612 147.125C278.875 147.602 279.335 148.045 280.136 148.414L280.292 148.492L280.448 148.551C281.419 148.999 282.267 149.687 282.87 150.641C283.405 151.489 283.632 152.43 283.69 153.375C283.9 153.384 284.169 153.406 284.511 153.375L284.823 153.355L285.116 153.316C287.544 153.092 290.055 153.275 291.796 154.684L292.03 154.879C293.646 156.186 293.56 158.105 293.202 159.371C292.838 160.653 292.026 162.069 291.015 163.512L290.78 163.863L290.526 164.215C289.77 165.293 289.352 166.09 289.14 166.617C289.202 166.633 289.271 166.68 289.354 166.695C289.847 166.783 290.583 166.801 291.62 166.695L291.933 166.676L292.245 166.637C292.98 166.562 293.795 166.564 294.569 166.773C295.391 166.996 296.325 167.517 296.874 168.551C297.385 169.521 297.326 170.517 297.167 171.246C297.004 171.989 296.686 172.732 296.308 173.414L296.132 173.707L295.976 174C295.767 174.377 295.629 174.701 295.526 174.957C296.331 175.201 297.476 175.391 299.062 175.348H299.335L299.608 175.328C300.838 175.296 302.107 175.444 303.202 175.953C304.099 176.372 304.838 177.03 305.312 177.906L305.702 178.863L305.78 179.176C306.161 180.571 306.37 182.054 306.405 183.609V183.961C306.412 184.259 306.471 184.372 306.483 184.391C306.488 184.398 306.542 184.496 306.796 184.605L306.972 184.664L308.3 185.328C309.41 185.985 310.355 186.846 311.054 187.945L311.132 188.082L311.21 188.199C312.507 190.241 312.024 192.736 311.19 194.84L311.093 195.074L310.995 195.328C310.702 196.069 310.645 196.521 310.644 196.734L310.741 196.832C310.788 196.858 310.96 196.932 311.347 196.988C311.885 197.065 312.692 197.067 313.788 196.93L314.413 196.852C315.153 196.759 315.919 196.74 316.64 196.852C317.356 196.964 318.236 197.25 318.944 197.945C320.53 199.508 319.998 201.609 319.55 202.73L319.354 203.238C319.204 203.615 319.107 203.912 319.062 204.137C319.046 204.214 319.028 204.279 319.022 204.332L319.062 204.352C319.427 204.597 320.362 204.916 322.304 204.84H322.577L322.851 204.82C323.566 204.792 324.46 204.857 325.292 205.27C326.271 205.758 326.973 206.645 327.167 207.77C327.331 208.723 327.092 209.623 326.835 210.289C326.563 210.991 326.158 211.712 325.683 212.438L325.507 212.691C326.611 212.68 327.877 212.821 328.866 213.668C330.476 215.052 330.25 217.034 329.862 218.258L329.804 218.492L329.726 218.727C329.636 219.009 329.587 219.222 329.569 219.371L329.667 219.43C331.621 220.366 332.838 222.034 333.085 224.195L333.124 224.547C333.226 225.438 333.5 226.077 333.886 226.559L334.081 226.793C334.131 226.846 334.548 227.226 336.171 227.262L336.425 227.281H336.679C337.89 227.307 339.354 227.559 340.448 228.57C341.67 229.702 341.879 231.227 341.698 232.516L341.679 232.73L341.64 232.926C341.48 234.059 341.72 234.528 341.874 234.723L342.069 234.957C342.307 235.256 342.834 235.663 344.022 235.914L344.413 235.992C346.634 236.462 348.403 237.721 349.491 239.723L349.589 239.879L349.687 240.055C350.047 240.718 350.279 241.503 350.233 242.359C350.188 243.213 349.881 243.966 349.452 244.586C348.648 245.746 347.334 246.572 345.995 247.203L345.683 247.359L345.37 247.496C344.833 247.749 344.413 247.98 344.101 248.18C344.054 248.21 344.004 248.231 343.964 248.258C344.148 248.817 344.298 249.412 344.257 250.055C344.194 251.024 343.805 251.889 343.222 252.594L343.163 252.691L343.085 252.77C342.371 253.632 341.544 254.378 340.604 254.996L340.507 255.055L340.409 255.133C340.399 255.141 340.35 255.17 340.272 255.25C340.172 255.355 340.041 255.517 339.882 255.738C339.558 256.188 339.17 256.829 338.729 257.691L338.593 257.926L338.476 258.18C338.169 258.778 337.769 259.396 337.245 259.898C336.705 260.415 335.92 260.912 334.901 260.973C333.875 261.031 333.018 260.628 332.421 260.172C331.843 259.729 331.386 259.151 331.015 258.59L330.858 258.375L330.722 258.141C330.499 257.804 330.309 257.557 330.155 257.398C330.114 257.356 330.07 257.329 330.038 257.301V257.32C328.751 257.874 327.447 258.304 326.132 258.59L325.976 258.609L325.839 258.648C324.671 258.903 323.491 259.144 322.323 259.371L322.187 259.391L322.03 259.43C320.941 259.642 319.841 259.895 318.749 260.191L318.612 260.23L318.456 260.27C316.349 260.842 314.398 260.175 312.792 258.883L312.479 258.648C311.573 257.918 310.801 257.576 310.155 257.457L309.999 257.418L309.843 257.398C309.123 257.268 308.399 257.305 307.636 257.555L307.479 257.613L307.323 257.652C305.209 258.345 303.21 257.756 301.562 256.461L301.249 256.227C300.428 255.583 299.827 255.419 299.394 255.426C299.355 255.463 299.298 255.509 299.237 255.582C298.893 255.993 298.441 256.764 297.909 258.023L297.753 258.395L297.597 258.746C297.272 259.515 296.91 260.233 296.503 260.836C296.109 261.417 295.573 262.046 294.843 262.477C294.029 262.955 293.023 263.159 291.991 262.848C291.062 262.567 290.397 261.947 289.94 261.402L289.628 261.051C289.566 260.977 289.501 260.925 289.452 260.875L289.354 260.953C288.034 262.004 286.645 262.812 285.194 263.336L285.058 263.395L284.901 263.453C283.137 264.091 281.327 264.02 279.608 263.277L279.452 263.219L279.315 263.141C277.565 262.384 276.077 260.916 274.804 259.117L274.667 258.902L274.511 258.688C273.407 257.128 272.308 255.753 271.229 254.547L271.093 254.371L270.858 254.137L270.702 254.273C269.848 255.029 268.869 256.307 267.792 258.238L267.636 258.492L267.479 258.766C267.122 259.406 266.682 260.052 266.132 260.562C265.575 261.078 264.764 261.589 263.729 261.656C261.601 261.789 260.318 260.076 259.706 259.059L259.55 258.805L259.413 258.57C258.914 257.741 258.478 257.215 258.144 256.91C257.887 256.677 257.743 256.627 257.714 256.617L257.577 256.578L257.421 256.559C257.384 256.553 257.309 256.543 257.147 256.617C256.951 256.71 256.616 256.932 256.19 257.398L256.054 257.574L255.897 257.73C255.14 258.56 254.2 259.301 253.046 259.645C251.814 260.009 250.569 259.846 249.472 259.293L249.335 259.215L249.179 259.156C248.015 258.57 246.846 257.953 245.683 257.34L245.644 257.301V257.32C245.514 257.438 245.346 257.634 245.136 257.926L244.979 258.121L244.823 258.336C244.09 259.349 242.64 260.78 240.546 260.328C239.63 260.13 238.936 259.605 238.437 259.098C238.051 258.706 237.754 258.23 237.46 257.75C236.848 258.955 236.005 260.267 234.726 260.934C233.973 261.324 233.086 261.491 232.167 261.285C231.296 261.089 230.62 260.602 230.116 260.113L229.96 259.977L229.804 259.82C228.996 259.039 228.591 259.081 228.476 259.098L228.163 259.137C227.682 259.212 226.979 259.519 226.073 260.387L225.937 260.523L225.78 260.66C224.814 261.585 223.375 262.325 221.679 261.871C220.223 261.481 219.22 260.354 218.534 259.332L218.378 259.098L218.222 258.883C217.796 258.247 217.484 257.96 217.323 257.848L217.226 257.887C215.429 258.387 213.63 258.152 211.972 257.32L211.835 257.262L211.679 257.184C211.6 257.222 211.417 257.319 211.151 257.594L210.995 257.75L210.858 257.906C209.532 259.281 208.06 260.353 206.444 260.934L206.288 260.992L206.151 261.051C204.436 261.667 202.903 260.992 201.874 260.035C200.934 259.16 200.191 257.881 199.569 256.5L199.413 256.168L199.276 255.836C199.235 255.744 199.179 255.664 199.14 255.582C198.258 256.64 197.353 257.854 196.444 259.234L196.288 259.449L196.132 259.684C195.454 260.712 194.624 261.676 193.573 262.281C192.418 262.946 191.077 263.121 189.745 262.633L189.589 262.594L189.433 262.535C188.936 262.354 188.478 262.347 187.909 262.613L187.772 262.691L187.616 262.77C185.522 263.751 183.397 263.368 181.62 262.066L181.464 261.949L181.327 261.832L181.073 261.695C181.039 261.708 180.947 261.739 180.819 261.832L180.663 261.949L180.526 262.047C179.507 262.788 178.209 263.21 176.796 262.906C175.488 262.623 174.472 261.795 173.71 260.914L173.554 260.758L173.417 260.582C173.322 260.472 173.229 260.388 173.163 260.328L173.026 260.445C172.407 260.897 171.592 261.241 170.644 261.227C169.704 261.21 168.919 260.842 168.319 260.387C167.507 259.769 166.891 258.85 166.366 257.867C166.054 258.747 165.705 259.599 165.233 260.27C164.816 260.861 163.871 261.947 162.323 261.949C160.776 261.948 159.83 260.86 159.413 260.27C158.933 259.587 158.557 258.724 158.241 257.828L158.085 257.398L157.948 256.969C157.429 255.497 156.95 254.598 156.601 254.098C156.287 254.239 155.756 254.567 155.058 255.445L154.901 255.641L154.765 255.836C153.49 257.441 152.101 258.746 150.585 259.605L150.429 259.684L150.292 259.762C149.665 260.117 148.917 260.355 148.104 260.328C147.299 260.301 146.589 260.02 145.995 259.645C145.059 259.053 144.361 258.121 143.769 257.145C143.164 258.425 142.355 259.802 141.112 260.543C140.388 260.973 139.478 261.204 138.515 261.031C137.626 260.87 136.938 260.398 136.425 259.918C136.406 259.943 136.386 259.969 136.366 259.996L136.229 260.211L136.073 260.426C135.357 261.411 134.212 262.554 132.558 262.711C130.792 262.876 129.493 261.83 128.69 260.875L128.378 260.523C127.419 259.384 126.743 259.051 126.386 258.98L126.229 258.961L126.073 258.922C124.678 258.653 123.305 258.187 121.972 257.516L121.835 257.438L121.679 257.359C120.786 256.91 119.948 256.677 119.159 256.617L119.003 256.598H118.866C118.703 256.585 118.216 256.605 117.362 257.457L117.226 257.613L117.069 257.77C116.266 258.571 115.226 259.267 113.964 259.469C112.645 259.677 111.44 259.282 110.448 258.609L110.429 258.59L109.96 259.176L109.804 259.391C108.489 261.154 106.581 262.769 104.081 262.496L103.925 262.477H103.788C102.921 262.382 102.035 262.431 101.151 262.633L101.015 262.652L100.858 262.691C99.1946 263.072 97.8026 262.346 96.8545 261.441C95.9522 260.579 95.215 259.363 94.5889 258.023L94.4326 257.691L94.2959 257.379C93.7724 256.258 93.3047 255.582 92.9678 255.211C92.8645 255.097 92.7963 255.03 92.7529 254.996H92.6553C91.7676 254.943 90.8691 255.024 89.96 255.25L89.6475 255.328C89.7948 255.291 89.6571 255.276 89.2568 255.758C88.8718 256.222 88.3962 256.985 87.8701 258.121L87.7139 258.434L87.5771 258.766C86.953 260.114 86.2046 261.344 85.2725 262.203C84.2622 263.133 82.7782 263.813 81.0928 263.277L80.9365 263.219L80.7998 263.18C79.1606 262.657 77.6652 261.628 76.3271 260.289L76.1904 260.133L76.0342 259.977C75.222 259.164 74.8187 259.202 74.7256 259.215L74.4131 259.254C73.4492 259.398 72.4751 259.664 71.4834 260.035L71.1709 260.152C70.0723 260.562 68.9133 260.583 67.792 260.211C66.7194 259.855 65.8143 259.179 65.0576 258.395L64.7451 258.082C64.3606 257.683 64.1172 257.55 64.0225 257.516H63.9248L63.7881 257.574L63.6318 257.633C61.9501 258.223 60.2164 258.22 58.5342 257.633L58.2217 257.516C56.7925 257.014 55.5132 256.1 54.3154 254.957C54.2518 255.075 54.1712 255.2 54.1006 255.348L53.9639 255.66L53.8076 255.973C53.4714 256.675 53.0966 257.349 52.6553 257.906C52.2255 258.448 51.6179 259.023 50.8193 259.371C49.9418 259.752 48.9757 259.782 48.0654 259.43C47.238 259.108 46.6119 258.539 46.1709 258.004L46.0146 257.809L45.8779 257.633C44.9306 256.482 44.3615 256.353 44.2178 256.344H44.0615L43.9053 256.324C42.3399 256.236 40.9216 255.616 39.6475 254.684C39.5034 254.956 39.3288 255.286 39.1592 255.699L39.0225 256.07L38.8662 256.441C38.2573 257.925 37.5226 259.283 36.5811 260.211C36.0887 260.695 35.4269 261.167 34.5889 261.383C33.6959 261.611 32.8033 261.494 32.0303 261.129L31.8936 261.07L31.7373 260.992C29.9779 260.162 28.5195 258.559 27.2646 256.637L27.1084 256.422L26.9521 256.188C26.4636 255.439 26.0603 254.967 25.7412 254.703C25.4486 254.461 25.2919 254.449 25.292 254.449L25.2334 254.43L25.1943 254.469C24.9442 254.686 24.5413 255.173 24.042 256.09L23.9053 256.363L23.749 256.637C23.1046 257.819 22.2866 258.973 21.1904 259.684C20.6067 260.062 19.8998 260.343 19.1006 260.387C18.2944 260.431 17.55 260.222 16.9131 259.879L16.7568 259.801L16.6201 259.723C15.837 259.301 15.1322 259.153 14.4717 259.195H14.3154L14.1592 259.215C13.0734 259.285 11.8044 259.422 10.3506 259.645L10.1553 259.684L9.95996 259.703C8.69357 259.897 7.10966 259.697 5.99512 258.355C5.04264 257.206 4.8931 255.736 4.94043 254.566L4.95996 254.293V254.039C4.97105 253.752 4.94288 253.608 4.9209 253.551C4.89774 253.531 4.71705 253.388 4.13965 253.316L3.86621 253.297L3.59277 253.258C2.99925 253.185 2.1918 253.034 1.50293 252.633C1.13207 252.416 0.622131 252.019 0.291992 251.344C-0.0708895 250.601 -0.0625987 249.838 0.135742 249.215C0.455197 248.214 1.2397 247.565 1.63965 247.262C2.15651 246.87 2.80602 246.5 3.51465 246.129L3.84668 245.934L4.19824 245.758C4.29344 245.708 4.37308 245.648 4.45215 245.602C4.42112 245.579 4.38837 245.547 4.35449 245.523L3.76855 245.094C2.53605 244.222 1.3777 243.219 0.741211 242.047C0.400744 241.419 0.138546 240.619 0.213867 239.723C0.292082 238.802 0.712291 238.039 1.24902 237.457L1.36621 237.32L1.4834 237.203C2.00154 236.643 2.27628 236.003 2.34277 235.23L2.3623 235.074L2.38184 234.898L2.55762 233.922C2.83955 232.972 3.42329 232.125 4.31543 231.52C5.37856 230.801 6.66258 230.58 7.85059 230.543L8.10449 230.523H8.33887C9.95089 230.473 11.3318 230.267 12.499 229.996C12.4563 229.888 12.4244 229.758 12.3623 229.625L12.2451 229.352L12.1084 229.078C11.803 228.421 11.5369 227.664 11.4834 226.871C11.428 226.024 11.6235 225 12.3818 224.156C13.0987 223.36 14.0268 223.04 14.7646 222.926C15.5072 222.812 16.294 222.859 17.0498 222.965L17.3818 223.023L17.7139 223.062C18.2393 223.136 18.644 223.15 18.9443 223.141L18.9639 223.121C19.1468 221.753 19.4762 220.45 19.9795 219.234L20.0967 218.961C20.3337 218.388 20.4558 217.531 20.292 216.285L20.2725 216.09L20.2334 215.895C19.9848 214.004 20.1809 212.14 21.0732 210.523L21.1318 210.387L21.21 210.25C22.3968 208.103 24.7656 207.565 26.8936 207.535L26.835 207.398C26.2296 206.221 25.6306 204.682 25.9756 203.16C26.1748 202.288 26.6639 201.517 27.4014 200.973C28.0848 200.469 28.8544 200.247 29.5303 200.152L29.7646 200.133L29.9795 200.094C31.3231 199.908 32.017 199.518 32.3818 199.195C32.3356 198.89 32.2019 198.339 31.7764 197.496L31.6396 197.203L31.4834 196.93C31.1475 196.265 30.8569 195.532 30.7412 194.781C30.6252 194.019 30.6678 193.022 31.249 192.105C31.8442 191.17 32.7517 190.721 33.5342 190.523C34.2897 190.333 35.0878 190.316 35.8193 190.387L36.1123 190.426L36.4248 190.445C36.5537 190.458 36.6712 190.44 36.7764 190.445C36.7 189.155 37.0874 187.736 38.4365 186.793C39.6634 185.938 41.2078 185.843 42.4795 185.934L43.0654 185.973C44.0182 186.04 44.5852 185.964 44.8818 185.875C44.9148 185.865 44.9387 185.844 44.96 185.836L45.0576 185.719C45.7599 184.471 46.7328 183.445 47.9092 182.613C47.7667 182.227 47.5071 181.614 46.9717 180.777L46.7568 180.465L46.542 180.133C46.0796 179.41 45.6655 178.628 45.4482 177.848C45.2419 177.105 45.0814 175.867 45.8584 174.742C46.6384 173.613 47.86 173.323 48.6318 173.258C49.4396 173.19 50.3162 173.309 51.1514 173.492L51.5225 173.59L51.9131 173.668C52.2974 173.752 52.6315 173.769 52.9092 173.805C52.7813 172.49 52.686 171.216 52.6943 169.977V169.605C52.7037 168.387 53.0911 167.152 54.0615 166.188C54.88 165.375 55.9183 164.986 56.9326 164.781C56.9171 164.745 56.9111 164.702 56.8936 164.664L56.6592 164.117C56.147 162.995 55.5691 161.248 56.4053 159.625C57.3478 157.799 59.298 157.498 60.5264 157.496H61.0342C62.819 157.493 63.5205 157.114 63.7295 156.93L63.9639 156.734C64.5188 156.246 64.9095 155.66 65.1553 154.938L65.2139 154.781L65.2529 154.645C65.4448 154.079 65.5283 153.17 65.2334 151.793L65.1748 151.578L65.1357 151.363C64.8798 150.171 64.8813 148.683 65.8193 147.418C66.7459 146.173 68.1541 145.719 69.3545 145.582L69.5889 145.562L69.8037 145.523V145.328C69.5097 143.35 69.7488 141.346 71.0146 139.723L71.1123 139.605L71.21 139.469C72.5148 137.808 74.6007 137.341 76.6201 137.301L76.6006 137.242L76.4053 136.93C75.595 135.61 74.9654 134.344 74.5889 133.18C74.2232 132.048 74.0113 130.75 74.374 129.488L74.4521 129.176C75.0738 127.023 77.1019 126.501 78.417 126.441C79.7795 126.38 81.4308 126.703 83.2217 127.223L83.6709 127.34L84.1201 127.477C84.9065 127.705 85.5468 127.847 86.0537 127.926C86.0834 127.93 86.1231 127.922 86.1514 127.926C86.2181 126.702 86.3792 125.528 86.6787 124.41L86.7568 124.098C86.8799 123.637 86.877 122.685 86.2686 121.012L86.1709 120.758L86.0928 120.523C85.332 118.433 84.9741 115.915 86.4834 113.941L86.5615 113.824L86.6592 113.707C87.7853 112.237 89.4069 111.339 91.2295 110.855L91.2686 110.836C91.2557 110.785 91.2675 110.722 91.249 110.66L91.1709 110.426L91.1123 110.191C90.9109 109.521 90.763 108.661 90.9756 107.77C91.2147 106.777 91.84 105.991 92.6943 105.504C93.4625 105.067 94.3011 104.938 94.999 104.918C95.7197 104.897 96.4931 104.984 97.2842 105.133L97.6357 105.191L98.0068 105.27C99.2239 105.498 99.9877 105.503 100.409 105.445C100.631 104.975 100.789 104.261 100.663 103.141L100.624 102.75C100.453 101.223 100.291 99.6955 100.136 98.1797L100.116 97.9648L100.097 97.7695C99.9531 96.3518 100.374 94.7903 101.835 93.8047C102.817 93.1449 103.992 92.9906 105.077 92.9844L104.979 92.8086C104.582 92.1209 104.243 91.4058 104.042 90.6992C103.848 90.016 103.71 89.1127 104.003 88.1797C104.332 87.1327 105.082 86.4061 105.956 86.0117C106.738 85.6591 107.573 85.5849 108.28 85.6016L108.554 85.6211H108.827C110.724 85.6665 112.012 85.4313 112.831 85.0938L112.987 85.0352L113.163 84.957C114.463 84.4216 115.798 83.9162 117.167 83.4336L117.519 83.3164C117.856 83.1976 117.967 83.0676 117.987 83.043C118.006 83.0185 118.063 82.9367 118.085 82.7305L118.104 82.5742L118.124 82.3984C118.335 80.3974 119.288 78.7099 120.995 77.5938L121.132 77.4961L121.269 77.418C122.052 76.9062 122.65 76.3152 123.104 75.6602L123.202 75.5234L123.28 75.4062C123.95 74.4362 124.647 73.4814 125.351 72.5352L125.429 72.3984L125.526 72.2812C126.226 71.3397 126.947 70.4099 127.675 69.4883L127.753 69.3711L127.851 69.2539C127.857 69.2458 127.877 69.2299 127.89 69.1953C127.904 69.1565 127.919 69.0741 127.929 68.9414C127.949 68.6622 127.919 68.1919 127.714 67.4961L127.636 67.2812L127.577 67.0469C127.001 65.0987 126.71 63.2384 126.815 61.5195L126.835 61.3438V61.168L127.03 60.0742C127.358 59.0366 128.071 58.171 129.12 57.6328C130.256 57.05 131.589 56.9739 132.831 57.0469C131.944 54.9685 131.351 53.0211 131.171 51.2266L131.132 50.8359C131.024 49.7595 131.118 48.6205 131.62 47.5742C132.136 46.5032 132.981 45.7244 133.983 45.2109L134.296 45.0547C135.176 44.605 135.823 44.0779 136.288 43.4922L136.386 43.375L136.464 43.2383C137.655 41.7361 139.405 40.9058 141.308 40.5039L141.698 40.4258C142.929 40.1658 144.059 39.8312 145.097 39.4688C144.994 39.2207 144.869 38.91 144.667 38.5508L144.491 38.2383L144.315 37.9453C143.603 36.6792 143.072 35.4002 142.87 34.1953C142.665 32.9649 142.77 31.4829 143.827 30.2891L143.925 30.1719L144.042 30.0742C144.682 29.3517 145.222 28.5585 145.683 27.7109L145.839 27.4375C146.505 26.2123 147.333 25.0916 148.319 24.0977L148.534 23.8828C149.519 22.8919 150.655 22.0254 151.913 21.2852L152.187 21.1289C153.423 20.401 154.777 19.7792 156.229 19.2539L156.405 19.1758L156.581 19.1172C158.265 18.51 160.239 18.2568 162.421 18.2578H162.948L163.007 18.2383C162.848 17.2075 162.864 16.1256 163.222 15.0938C163.612 13.972 164.35 13.0785 165.331 12.457L165.468 12.3594L165.604 12.2812C165.939 12.0682 166.076 11.865 166.093 11.4023V11.0703C166.141 9.67271 166.329 7.93784 166.62 5.91406L166.659 5.66016L166.679 5.40625C166.862 4.13446 167.306 2.86726 168.183 1.85156C169.11 0.778592 170.339 0.203019 171.679 0.0742188L171.874 0.0546875L172.089 0.0351562ZM172.167 5.05469C172.039 5.06697 171.977 5.09131 171.972 5.09375L171.952 5.11328C171.907 5.16643 171.74 5.41977 171.64 6.10938L171.601 6.38281L171.562 6.63672C171.283 8.56903 171.133 10.1007 171.093 11.2461V11.4023L171.073 11.5781C171 13.6496 170.043 15.3811 168.28 16.5L168.144 16.5977L168.007 16.6758C167.98 16.6928 167.956 16.7078 167.948 16.7148V17.5352L167.987 17.75L168.026 17.9453C168.246 19.2371 168.077 20.8371 166.796 22.0078C165.669 23.0371 164.17 23.2582 162.948 23.2578H162.421C160.591 23.2568 159.24 23.4783 158.28 23.8242L157.929 23.9414C156.736 24.3729 155.668 24.8713 154.726 25.4258L154.589 25.5234L154.433 25.6016C153.515 26.1422 152.727 26.7557 152.069 27.418L151.854 27.6328C151.204 28.2901 150.669 29.0201 150.233 29.8203L150.077 30.0938C149.44 31.2668 148.656 32.3352 147.772 33.3359L147.792 33.375C147.856 33.7576 148.086 34.444 148.671 35.4844L148.847 35.7969L149.022 36.0898C149.726 37.34 150.314 38.7462 150.312 40.1133C150.309 40.8541 150.133 41.6661 149.628 42.3984C149.118 43.1355 148.414 43.6001 147.714 43.8633L145.136 44.7227C144.362 44.9446 143.559 45.1341 142.733 45.3086L142.538 45.3672L142.343 45.4062C141.168 45.6544 140.631 46.0418 140.39 46.3438L140.292 46.4609L140.194 46.5977C139.23 47.8116 137.995 48.7757 136.562 49.5078L136.425 49.5859L136.269 49.6641C136.181 49.7089 136.138 49.7359 136.132 49.7422C136.13 49.7462 136.051 49.9024 136.093 50.3281L136.112 50.5234L136.151 50.7383C136.269 51.8999 136.667 53.4019 137.479 55.2695L137.597 55.5234L137.714 55.7969C138.193 56.8999 138.79 58.8248 137.597 60.4648C136.423 62.0729 134.427 62.1498 133.222 62.0664L132.636 62.0273C132.304 62.0042 132.038 62.0134 131.835 62.0273C131.807 62.9638 131.928 64.1496 132.362 65.6211L132.44 65.8555L132.499 66.0898C133.11 68.1592 133.238 70.5095 131.776 72.3594L131.679 72.4766L131.601 72.5938C130.902 73.4783 130.202 74.366 129.53 75.2695L129.452 75.3867L129.354 75.5039C128.687 76.4023 128.037 77.3174 127.401 78.2383L127.323 78.375L127.226 78.4922C126.375 79.7243 125.289 80.757 124.003 81.5977L123.866 81.6953L123.729 81.7734C123.363 82.013 123.149 82.3156 123.085 82.9258L123.065 83.1016L123.046 83.2578C122.933 84.331 122.56 85.3718 121.835 86.2461C121.119 87.1091 120.176 87.6719 119.179 88.0234L119.022 88.082L118.847 88.1406C117.551 88.5973 116.279 89.0824 115.058 89.5859L114.901 89.6641L114.726 89.7227C113.205 90.3482 111.407 90.5516 109.433 90.5625L109.667 90.9141C110.064 91.6019 110.39 92.3253 110.585 93.043C110.773 93.739 110.894 94.6958 110.526 95.6602C110.116 96.7287 109.284 97.3891 108.417 97.7109C107.629 98.0032 106.793 98.0285 106.073 97.9844L105.78 97.9648L105.507 97.9453C105.371 97.937 105.242 97.9453 105.136 97.9453C105.281 99.3536 105.445 100.765 105.604 102.184L105.644 102.574C105.852 104.434 105.652 106.257 104.823 107.848L104.765 107.984L104.687 108.102C103.911 109.591 102.456 110.193 101.21 110.387C99.9824 110.576 98.5561 110.451 97.0693 110.172L96.7178 110.113L96.3662 110.035C96.2937 110.022 96.2181 110.027 96.1514 110.016C96.3415 110.98 96.4331 112.036 95.9951 113.062C95.3797 114.504 94.133 115.272 92.8896 115.602L92.7139 115.641L92.5186 115.699C91.4318 115.987 90.8953 116.399 90.624 116.754L90.5459 116.871L90.4482 116.988C90.4941 116.928 90.4302 116.95 90.4287 117.223C90.4281 117.527 90.5023 118.04 90.7803 118.805L90.8779 119.059L90.9756 119.293C91.7333 121.375 92.089 123.486 91.5811 125.387L91.5029 125.699C91.2485 126.649 91.1013 127.729 91.0928 128.941V129.293C91.0865 130.196 90.7813 131.194 89.96 131.949C89.2094 132.639 88.2959 132.882 87.5771 132.965C86.1932 133.124 84.5004 132.794 82.7334 132.281L82.2842 132.145L81.835 132.027C80.7125 131.701 79.8754 131.546 79.2959 131.48C79.3097 131.529 79.3175 131.582 79.335 131.637C79.5442 132.284 79.9661 133.177 80.6631 134.312L81.0537 134.938C81.4868 135.643 81.8565 136.378 82.0889 137.086C82.3095 137.761 82.4962 138.672 82.2451 139.625C81.9548 140.723 81.1912 141.496 80.2725 141.91C79.4651 142.273 78.6046 142.329 77.8896 142.301H77.6162L77.3428 142.281C76.4387 142.245 75.8334 142.332 75.4678 142.438C75.1203 142.538 75.0862 142.618 75.1357 142.555L75.0576 142.672L74.96 142.789C74.8122 142.978 74.5768 143.444 74.7451 144.586L74.7842 144.801L74.8037 144.996C74.9852 146.216 74.8407 147.653 73.8467 148.824C72.8956 149.942 71.5524 150.37 70.3701 150.504L70.1553 150.523H70.0771L70.1162 150.738C70.5282 152.658 70.5762 154.544 69.999 156.246L69.9404 156.383L69.9014 156.539C69.3779 158.083 68.4861 159.41 67.2646 160.484L67.1475 160.582L67.0303 160.699C65.5416 162.005 63.4888 162.412 61.3857 162.457L61.4443 162.594C61.9722 163.751 62.4673 165.282 62.0107 166.773C61.4467 168.61 59.8474 169.359 58.4951 169.566L58.2803 169.586L58.0654 169.625C57.9039 169.65 57.7769 169.677 57.6943 169.703V170.016C57.6859 171.294 57.7603 172.648 57.9287 174.078L57.9482 174.293L57.9678 174.488C58.0556 175.236 57.9964 176.15 57.4795 177.008C56.947 177.887 56.1353 178.381 55.3701 178.629C54.1894 179.01 52.8046 178.878 51.4639 178.629C52.1748 179.809 52.7663 180.978 52.9678 182.105C53.0872 182.777 53.098 183.574 52.8311 184.371C52.5463 185.214 51.9891 185.883 51.2686 186.344L51.1318 186.441L50.9951 186.52C50.2673 186.986 49.7632 187.539 49.4131 188.16L49.2568 188.434C48.5784 189.633 47.47 190.314 46.3271 190.66C45.2262 190.992 43.9865 191.062 42.7139 190.973L42.1279 190.934C42.0231 190.926 41.9218 190.936 41.835 190.934C41.8817 191.519 41.8583 192.164 41.6201 192.809C41.3162 193.626 40.7583 194.279 40.0576 194.723C38.914 195.447 37.5259 195.508 36.3076 195.426C36.8753 196.581 37.3107 197.756 37.4014 198.902C37.502 200.186 37.1905 201.599 36.0537 202.652L35.8193 202.848C34.5731 204.002 32.9558 204.626 31.1904 204.938C31.2169 204.992 31.2378 205.053 31.2686 205.113L31.4248 205.406L31.5615 205.68C31.9024 206.343 32.2004 207.054 32.3428 207.77C32.4834 208.479 32.5107 209.39 32.1084 210.289C31.1987 212.316 29.0636 212.565 27.8506 212.535H27.5771L27.3037 212.516C26.4377 212.494 25.9248 212.596 25.6631 212.691C25.502 212.75 25.4878 212.771 25.5264 212.73L25.5068 212.809L25.4482 212.926C25.2239 213.332 25.0377 214.036 25.1943 215.23L25.2334 215.426L25.2529 215.641C25.4944 217.482 25.3694 219.273 24.7061 220.875L24.5889 221.148C24.2375 221.997 23.9888 222.965 23.8662 224.059L23.8467 224.234V224.391C23.7634 225.134 23.4855 225.893 22.9482 226.539C22.4187 227.175 21.7342 227.574 21.0732 227.809C19.8473 228.242 18.4207 228.194 17.0498 228.004C17.4967 229.08 17.8637 230.305 17.6162 231.539C17.4589 232.318 17.0809 233.048 16.4639 233.629C15.8694 234.188 15.1688 234.512 14.5107 234.684L14.3154 234.723L14.1396 234.781C12.4547 235.22 10.557 235.459 8.49512 235.523H8.00684C7.7027 235.533 7.47463 235.568 7.32324 235.602V235.66C7.17986 237.326 6.55397 238.811 5.52637 240.094C5.78349 240.343 6.13963 240.658 6.63965 241.012L6.95215 241.227L7.24512 241.441C8.49993 242.329 10.1395 243.858 9.9209 246.07C9.76713 247.592 8.77659 248.654 7.7334 249.41C8.0467 249.625 8.34273 249.877 8.6123 250.172C9.68385 251.346 10.0187 252.83 9.95996 254.254L9.94043 254.508V254.645C11.3656 254.434 12.6734 254.291 13.8467 254.215H14.0029L14.1592 254.195C15.7561 254.094 17.2882 254.465 18.7295 255.191C18.8997 254.98 19.1178 254.669 19.3545 254.234L19.5107 253.961L19.6475 253.688C20.2925 252.503 21.0517 251.432 21.9521 250.66C22.6538 250.06 23.5345 249.578 24.5498 249.449H25.6045L25.7607 249.469L25.8975 249.488C28.1986 249.767 29.9056 251.545 31.1514 253.453L31.2881 253.688L31.4443 253.902C32.2205 255.091 32.9063 255.765 33.417 256.148C33.446 256.102 33.5026 256.066 33.5342 256.012C33.7471 255.647 33.981 255.152 34.2373 254.527L34.3936 254.176L34.5303 253.805C35.1292 252.345 35.9185 250.898 37.0303 250.016C37.6487 249.525 38.4882 249.107 39.5107 249.137C40.0173 249.151 40.4747 249.271 40.8779 249.449L41.9131 250.113L42.0693 250.23L42.2256 250.367C43.0879 251.1 43.7425 251.319 44.1982 251.344H44.335L44.4912 251.363C46.4002 251.469 47.9491 252.549 49.2178 253.922C49.2353 253.886 49.2778 253.862 49.2959 253.824L49.4521 253.512L49.5889 253.199C50.195 251.934 51.0785 250.507 52.4209 249.801C53.1974 249.395 54.1156 249.248 55.0576 249.488C55.4982 249.601 55.8899 249.776 56.2295 249.996L57.1084 250.719L57.2451 250.875L57.4014 251.031C58.3728 252.037 59.2073 252.572 59.8818 252.809L60.0381 252.848L60.1748 252.906C60.7884 253.121 61.3579 253.121 61.9717 252.906L62.1279 252.848L62.2646 252.809C64.6745 251.963 66.8185 253.006 68.3584 254.605L68.4951 254.762L68.6514 254.918C69.0438 255.326 69.2988 255.44 69.374 255.465L69.3936 255.484L69.4326 255.465L69.5693 255.406L69.7256 255.348C71.0303 254.859 72.3579 254.511 73.6904 254.312L73.8271 254.293L73.9834 254.273C76.1994 253.943 78.0986 254.97 79.5693 256.441L79.7256 256.598L79.8623 256.754C80.6947 257.587 81.4416 258.027 82.0498 258.277C82.2802 257.989 82.6354 257.501 83.0264 256.656L83.1826 256.344L83.3389 256.012C83.9626 254.665 84.6446 253.476 85.4092 252.555C86.1569 251.656 87.1623 250.807 88.4561 250.484L88.5928 250.445L88.749 250.406C90.1369 250.06 91.5388 249.931 92.9482 250.016H93.1045L93.2607 250.035C94.7366 250.127 95.877 250.951 96.6787 251.832C97.4917 252.727 98.1811 253.928 98.8076 255.27L99.1201 255.895C99.578 256.875 99.9616 257.429 100.214 257.711C101.572 257.419 102.943 257.347 104.315 257.496L104.628 257.535C104.561 257.528 104.582 257.569 104.765 257.457C104.982 257.323 105.341 257.018 105.8 256.402L105.956 256.188L106.093 255.992C106.808 255.032 107.77 254.09 109.042 253.668C110.109 253.315 111.149 253.402 112.069 253.785L112.948 254.273L113.104 254.371L113.241 254.449C113.307 254.403 113.412 254.337 113.534 254.215L113.69 254.078L113.827 253.922C115.273 252.478 117.102 251.456 119.237 251.617H119.394L119.55 251.637C121.057 251.753 122.521 252.18 123.925 252.887L124.081 252.965L124.218 253.043C125.182 253.528 126.128 253.846 127.03 254.02L127.167 254.059L127.323 254.078C129.249 254.449 130.84 255.713 132.167 257.281H132.187L132.323 257.066C133.034 256.085 134.08 255.039 135.546 254.723C136.9 254.433 138.066 254.881 138.964 255.543C139.055 255.378 139.191 255.201 139.296 254.977L139.433 254.664L139.589 254.332C139.927 253.61 140.339 252.914 140.839 252.34C141.326 251.782 142.101 251.123 143.202 250.953C144.393 250.771 145.386 251.233 146.054 251.793C146.678 252.318 147.142 253.013 147.499 253.668L147.655 253.941L147.792 254.215C147.998 254.593 148.184 254.872 148.339 255.074C149.068 254.61 149.917 253.872 150.839 252.711L150.995 252.535L151.151 252.34C152.473 250.676 154.142 249.286 156.229 249.02L156.542 248.98L157.89 249.059C159.136 249.367 160.032 250.301 160.585 251.051C161.253 251.957 161.816 253.153 162.343 254.527C162.584 253.934 162.802 253.36 163.104 252.887C163.488 252.286 164.198 251.376 165.37 251.031C166.819 250.605 168.009 251.282 168.69 251.949C169.312 252.559 169.745 253.369 170.077 254.117L170.39 254.781C170.587 255.226 170.776 255.57 170.937 255.836C171.851 255.322 172.931 255.059 174.101 255.309C175.411 255.588 176.424 256.42 177.187 257.301L177.499 257.652C177.588 257.755 177.67 257.828 177.733 257.887L177.89 257.789C178.79 257.136 179.874 256.691 181.093 256.695C182.309 256.701 183.381 257.152 184.276 257.809L184.433 257.906L184.589 258.023C184.899 258.25 185.082 258.307 185.155 258.316C185.211 258.324 185.307 258.322 185.487 258.238L185.644 258.16L185.8 258.102C187.528 257.293 189.371 257.167 191.171 257.828H191.19C191.237 257.789 191.318 257.762 191.386 257.691C191.547 257.522 191.747 257.271 191.972 256.93L192.108 256.695L192.265 256.48C193.467 254.654 194.695 253.024 195.937 251.617L196.073 251.461L196.229 251.285L197.089 250.504C197.425 250.265 197.813 250.05 198.261 249.918C199.242 249.63 200.207 249.793 201.015 250.23C201.752 250.632 202.307 251.231 202.714 251.793C203.132 252.371 203.497 253.053 203.827 253.785L204.14 254.449C204.504 255.258 204.813 255.767 205.038 256.07C205.661 255.787 206.412 255.311 207.245 254.449L207.558 254.137C208.33 253.336 209.275 252.629 210.429 252.32C211.645 251.995 212.851 252.172 213.925 252.711L214.081 252.789L214.218 252.867C214.86 253.189 215.375 253.202 215.878 253.062L216.19 252.984L217.206 252.809C219.532 252.689 221.28 254.465 222.382 256.109L222.538 256.324L222.675 256.539C222.697 256.573 222.732 256.607 222.753 256.637C224.11 255.372 225.681 254.459 227.44 254.195L227.577 254.176L227.733 254.137C229.687 253.845 231.39 254.625 232.792 255.816C232.863 255.692 232.986 255.567 233.065 255.406L233.222 255.113L233.358 254.82C233.702 254.128 234.125 253.44 234.647 252.887C235.167 252.338 235.984 251.726 237.089 251.617C238.245 251.506 239.188 251.99 239.823 252.535C240.427 253.055 240.891 253.722 241.249 254.371L241.386 254.645C242.043 253.813 242.832 253.029 243.847 252.594C244.818 252.179 245.823 252.132 246.776 252.398L247.714 252.77L248.026 252.926C249.16 253.523 250.291 254.113 251.425 254.684L251.659 254.801C251.743 254.754 251.937 254.646 252.206 254.352L252.362 254.195L252.499 254.039C253.932 252.469 255.865 251.259 258.183 251.617L258.339 251.637L258.476 251.676C260.682 252.017 262.281 253.781 263.476 255.68C264.374 254.082 265.333 252.701 266.347 251.578L267.538 250.387L267.694 250.25C268.619 249.435 269.878 248.806 271.366 248.98C272.784 249.148 273.879 249.994 274.667 250.875L274.823 251.031L274.96 251.207C276.182 252.573 277.396 254.106 278.593 255.797L278.749 256.012L278.886 256.227C279.909 257.673 280.739 258.311 281.288 258.551L281.444 258.629L281.601 258.688C282.179 258.936 282.669 258.939 283.202 258.746L283.358 258.688L283.495 258.648C284.344 258.342 285.27 257.826 286.249 257.047L286.386 256.93L286.542 256.793C287.533 256.005 288.84 255.505 290.312 255.797C291.325 255.998 292.12 256.57 292.792 257.203C292.851 257.077 292.943 256.944 293.007 256.793L293.144 256.441L293.3 256.09C293.917 254.627 294.605 253.34 295.409 252.379C296.19 251.446 297.383 250.475 299.003 250.445H299.159L299.315 250.426C301.179 250.396 302.879 251.142 304.354 252.301L304.491 252.418L304.647 252.535C305.295 253.043 305.598 252.966 305.78 252.906L305.917 252.867L306.073 252.809C307.605 252.306 309.186 252.188 310.761 252.477L310.897 252.496L311.054 252.535C312.706 252.838 314.234 253.623 315.624 254.742L315.761 254.879L315.917 254.996C316.61 255.554 316.956 255.497 317.147 255.445L317.304 255.406L317.44 255.367C318.647 255.039 319.863 254.763 321.073 254.527L321.229 254.488L321.366 254.469C322.496 254.249 323.635 254.012 324.765 253.766L325.077 253.688C326.058 253.473 327.056 253.165 328.065 252.73L328.222 252.652L328.358 252.594C329.671 252.028 331.052 252.133 332.265 252.789C333.187 253.289 333.909 254.087 334.53 254.938C334.957 254.137 335.384 253.413 335.819 252.809C336.318 252.116 336.925 251.434 337.655 250.953L337.753 250.875L337.851 250.816C338.363 250.48 338.796 250.077 339.179 249.625L339.159 249.566L339.101 249.43C338.733 248.664 338.639 247.804 338.866 246.969C339.078 246.199 339.519 245.596 339.94 245.152C340.759 244.293 341.953 243.592 343.241 242.984L343.866 242.672C344.367 242.435 344.73 242.227 344.979 242.047C344.996 242.035 345.004 241.999 345.019 241.988C344.677 241.427 344.201 241.069 343.378 240.895L343.183 240.836L342.987 240.797C341.082 240.394 339.335 239.566 338.144 238.062L337.948 237.828C336.685 236.229 336.411 234.243 336.679 232.281H336.327L336.073 232.262C333.88 232.215 331.597 231.692 330.175 229.918L329.979 229.684C328.928 228.371 328.338 226.813 328.144 225.113L328.104 224.762C328.055 224.332 327.923 224.144 327.499 223.941L327.187 223.785C325.991 223.212 325.085 222.215 324.726 220.855C324.446 219.789 324.578 218.695 324.843 217.691L324.745 217.711L324.433 217.73C323.69 217.81 322.808 217.817 321.972 217.535C321.014 217.212 320.08 216.475 319.726 215.25C319.431 214.221 319.678 213.247 319.921 212.574C320.181 211.855 320.578 211.114 321.054 210.387L321.288 210.035L321.405 209.82C319.49 209.786 317.685 209.464 316.269 208.512L316.132 208.414L315.995 208.336C314.812 207.54 314.167 206.319 314.042 204.977C313.946 203.931 314.196 202.877 314.55 201.871L314.394 201.891C313.043 202.059 311.772 202.11 310.644 201.949C309.527 201.789 308.372 201.4 307.44 200.582L307.323 200.484L307.206 200.367C305.024 198.445 305.515 195.591 306.347 193.492L306.542 192.984C306.865 192.169 306.992 191.593 307.011 191.227C307.02 191.041 307.003 190.939 306.991 190.895L306.913 190.758L306.835 190.641C306.533 190.165 306.021 189.703 305.155 189.332L304.999 189.254L304.843 189.195C303.855 188.772 302.956 188.114 302.323 187.164C301.693 186.218 301.429 185.146 301.405 184.078V183.727C301.378 182.523 301.218 181.442 300.956 180.484L300.937 180.465C300.741 180.412 300.364 180.311 299.726 180.328L299.472 180.348H299.198C297.495 180.394 295.9 180.264 294.491 179.898L292.968 179.391L292.812 179.312C292.12 179.024 291.453 178.546 290.976 177.809C290.503 177.08 290.33 176.289 290.331 175.562C290.336 174.257 290.862 172.909 291.522 171.695C289.271 171.857 286.925 171.642 285.351 170.133L285.233 170.035L285.116 169.918C283.679 168.531 283.869 166.66 284.237 165.445C284.623 164.178 285.414 162.785 286.425 161.344L286.933 160.641C287.618 159.662 287.968 158.911 288.183 158.414C287.738 158.302 286.943 158.171 285.585 158.297L285.272 158.336L284.979 158.355C283.671 158.477 282.23 158.438 281.015 157.828C280.358 157.498 279.759 156.99 279.335 156.285C278.917 155.589 278.759 154.834 278.749 154.137V153.785C278.745 153.474 278.671 153.349 278.651 153.316C278.64 153.299 278.587 153.209 278.358 153.102L278.183 153.023L278.026 152.945C276.412 152.199 275.089 151.075 274.237 149.527L274.159 149.391L274.101 149.273C273.441 148.074 273.43 146.745 273.651 145.602C273.874 144.458 274.367 143.254 275.019 142.027L275.331 141.441C275.472 141.176 275.545 140.93 275.624 140.738C274.758 140.417 273.925 139.955 273.28 139.195C272.596 138.388 272.267 137.434 272.147 136.461C271.861 136.459 271.479 136.468 270.995 136.539L270.663 136.598L270.331 136.637C268.937 136.841 267.476 136.9 266.229 136.461C265.563 136.226 264.886 135.82 264.354 135.172C263.816 134.514 263.548 133.751 263.476 133.004L263.456 132.828V132.652C263.33 131.357 263.176 130.063 263.026 128.785L263.007 128.629L262.987 128.453C262.844 127.231 262.809 125.96 262.851 124.645C262.548 124.675 262.178 124.709 261.737 124.801L261.347 124.879L260.976 124.957C260.16 125.128 259.357 125.229 258.612 125.211C257.9 125.193 256.954 125.075 256.132 124.508C255.181 123.851 254.71 122.847 254.647 121.832C254.594 120.945 254.855 120.111 255.136 119.449L255.253 119.176L255.351 118.922C255.405 118.795 255.413 118.67 255.448 118.57C254.841 118.379 254.201 118.072 253.671 117.516C253.036 116.848 252.714 116.035 252.636 115.23C252.509 113.922 253.008 112.607 253.593 111.461C251.146 111.755 248.887 111.716 247.108 110.973L246.952 110.895L246.776 110.836C245.258 110.2 243.928 109.328 242.851 108.199L242.753 108.082L242.636 107.984C241.058 106.328 240.878 104.126 241.288 102.066L241.366 101.637C241.738 99.7793 242.426 97.7667 243.378 95.6211L243.612 95.0742C243.632 95.0291 243.634 94.979 243.651 94.9375C242.265 94.6972 240.757 94.5155 239.14 94.4102L238.671 94.3711C237.398 94.2882 235.599 93.8073 234.804 91.9883C234.126 90.4315 234.633 88.79 235.136 87.6523L235.253 87.3789L235.37 87.125C235.757 86.2509 235.937 85.6014 235.995 85.1523C236.05 84.7157 235.981 84.5763 235.995 84.6055L235.917 84.4688L235.858 84.332C235.451 83.4942 234.932 82.7344 234.315 82.0469L234.218 81.9297L234.12 81.832C233.651 81.3089 232.962 80.8166 231.972 80.4258L231.815 80.3672L231.64 80.2891C230.243 79.7377 228.941 79.0979 227.733 78.375L227.597 78.2969L227.44 78.2188C226.158 77.4508 225.03 76.5232 224.081 75.4453L223.886 75.2109C222.922 74.1127 222.694 72.756 222.812 71.5391C222.927 70.3661 223.372 69.1443 223.964 67.9453L224.101 67.6719L224.14 67.5742C223.018 67.4698 221.723 67.1595 220.8 66.0898C219.678 64.7876 219.71 63.1853 219.999 61.9688L220.038 61.7539L220.097 61.5195C220.417 60.1703 220.32 59.3796 220.155 58.9414C219.84 58.8835 219.254 58.8581 218.3 58.9805L217.987 59.0195L217.655 59.0586C216.906 59.1545 216.119 59.1768 215.37 59.0391C214.62 58.9009 213.689 58.5604 213.007 57.7109C212.306 56.8322 212.184 55.8094 212.265 54.9961C212.344 54.214 212.608 53.4526 212.929 52.7891L213.202 52.2422C213.386 51.8628 213.486 51.5537 213.554 51.3242C211.836 50.4902 210.567 49.1357 210.077 47.2227L209.999 46.9102C209.771 46.0197 209.425 45.2612 208.944 44.625C208.886 44.6129 208.794 44.5961 208.671 44.5859C208.123 44.5418 207.216 44.592 205.878 44.8789L205.507 44.9766L205.136 45.0547C204.311 45.2315 203.496 45.3316 202.753 45.3281C202.045 45.3243 201.161 45.2171 200.351 44.7422C199.413 44.1925 198.808 43.2953 198.651 42.2422C198.516 41.3284 198.734 40.4649 198.983 39.8008L199.081 39.5469L199.179 39.3125C199.315 38.9505 199.396 38.6643 199.433 38.4531C199.446 38.377 199.429 38.3079 199.433 38.2578L199.394 38.2383C198.347 37.5547 197.641 36.546 197.343 35.3281C197.064 34.1865 197.172 33.0051 197.46 31.9102L197.519 31.6758L197.577 31.4609C197.875 30.3305 197.993 29.3499 198.026 28.5117C198.001 28.5152 197.975 28.5273 197.948 28.5312C197.448 28.6045 196.805 28.7442 196.034 28.9609L195.604 29.0781L195.155 29.2148C194.238 29.4722 193.364 29.6427 192.577 29.7031C191.851 29.7581 190.849 29.752 189.94 29.2734C188.793 28.6692 188.195 27.5588 188.163 26.3828C188.138 25.4323 188.476 24.5504 188.808 23.8828L188.964 23.5898L189.101 23.3164C189.143 23.2321 189.145 23.1366 189.179 23.0625C188.126 22.7986 187.044 22.2515 186.327 21.1484C185.51 19.8905 185.526 18.4721 185.78 17.3008L185.819 17.0664L185.858 16.8516C186.195 15.3122 186.438 13.8339 186.62 12.418C186.568 12.4168 186.504 12.4174 186.444 12.418L186.19 12.4375H185.917C184.949 12.4472 184.244 12.4768 183.769 12.5352C183.597 12.5564 183.47 12.5784 183.397 12.5938C183.18 12.7279 182.77 12.9557 182.226 13.0039C181.768 13.0437 181.09 12.9817 180.468 12.5156C179.871 12.0688 179.628 11.4826 179.53 11.1094C179.367 10.4775 179.485 9.92225 179.511 9.80078C179.558 9.58289 179.632 9.38244 179.687 9.23438C179.784 8.96876 179.948 8.668 180.116 8.31641C178.111 8.38437 176.24 7.76503 174.784 6.16797L174.647 6.01172L174.491 5.85547C173.849 5.15143 173.263 4.94785 172.558 5.01562L172.167 5.05469ZM180.995 8.23828C180.971 8.24977 180.939 8.26609 180.917 8.27734C180.959 8.25038 181.011 8.24313 181.054 8.21875C181.033 8.2279 181.011 8.2306 180.995 8.23828Z" fill="black"/>
</svg>
